<?xml version="1.0" encoding="UTF-8"?>
<!DOCTYPE svg PUBLIC "-//W3C//DTD SVG 1.1//EN" "http://www.w3.org/Graphics/SVG/1.1/DTD/svg11.dtd">
<!-- Creator: CorelDRAW 2017 -->
<svg xmlns="http://www.w3.org/2000/svg" xml:space="preserve" width="30mm" height="30mm" version="1.1" style="shape-rendering:geometricPrecision; text-rendering:geometricPrecision; image-rendering:optimizeQuality; fill-rule:evenodd; clip-rule:evenodd"
viewBox="0 0 3000 3000"
 xmlns:xlink="http://www.w3.org/1999/xlink">
 <defs>
  <style type="text/css">
   <![CDATA[
    .fil0 {fill:#00953E}
    .fil1 {fill:#1D1D1B}
    .fil2 {fill:#F6F6F6}
   ]]>
  </style>
 </defs>
 <g id="Camada_x0020_1">
  <metadata id="CorelCorpID_0Corel-Layer"/>
  <g id="_2086531462016">
   <path class="fil0" d="M1604.37 1841.38c4.43,7.18 4.48,0.09 -0.33,12.75l-97.57 200.03c-7.14,15.17 -5.76,23.12 -22.51,26.79 -13.75,-9.76 -20.34,-32.56 -27.47,-47.52l-73.59 -153.91c-24.16,-49.95 -35.39,-41.69 75.39,-41.69 26.61,0 132.1,-5.46 146.08,3.55zm-59.38 -419.11c14.26,-6.65 27.12,-36.59 35.77,-49.02 27.79,-39.9 91.62,-130.8 98.02,-177.39 140.46,-0.79 275.86,146.35 261.4,304.21 -8.53,93.15 -57.01,122.69 -149.03,134.27 -73.71,9.28 -478.54,8.02 -559.99,1.43 -40.51,-3.28 -83.01,-14.47 -110.02,-33.38 -26.19,-18.33 -43.17,-47.74 -48.44,-95.03 -17.99,-161.29 112.19,-305.09 257.25,-311.96l13.14 31.18c4.88,11.73 9.92,20.96 15.75,31.94 10.02,18.91 92.99,155.53 108.8,164.29l7.33 -109.2c-19.45,-11 -33.36,-22.14 -35.09,-55.92 67.18,18.12 66.03,15.37 131.94,0.11 -0.45,41.03 -32.79,43 -34.04,64.73 -1.3,22.39 5,75.02 7.21,99.74zm-222.38 -498.61c-28.88,0.02 -62.65,6.46 -70.59,-20.81 -9.73,-33.39 10.36,-42.71 38.73,-44.62 1.79,-82.96 46.64,-159.81 118.49,-189.88 5.6,19.78 9.38,47.15 12.8,68.41 3.84,23.89 5.65,51.03 32.69,41.1 8.85,-21.68 -7.49,-75.26 -12.36,-102.27 -9.32,-51.65 18.21,-48.16 63.6,-48.19 19.32,-0.01 40.9,-1.9 56,6.04 32.47,17.09 -18.46,93.16 -5.34,144.92 30.07,8.77 28.52,-15.39 33.16,-41.17 2.06,-11.46 4.14,-22.72 6.08,-34.43l7.6 -30.9c0.22,-1.66 0.93,-2.01 1.5,-2.95 71.18,29.69 113.97,109.82 117.1,189.27 16.28,1.4 28.31,2.25 34.82,13.27 6.31,10.67 7.12,25.89 -1.17,38.13 -13.63,20.14 -45.61,14.08 -73.74,14.08l-359.37 0zm-832.9 -492.54c-92.39,16.88 -29.64,106.45 -1.19,164.81 29.29,60.07 58.63,119.82 87.36,180.25 256.02,538.57 521.8,1078.42 780.98,1617.29 14.84,30.84 29.22,58.82 43.1,88.89 13.77,29.87 26.06,71.27 53.34,82.26 33.93,13.68 88.12,6.21 104.25,-15.57 13.97,-18.87 31.58,-62.48 44.25,-87.86 206.01,-412.96 408.36,-839.32 612.17,-1254.29 36.83,-75.01 344.12,-697.92 346.5,-719.54 4.57,-41.41 -31.09,-57.27 -71.59,-57.49 -192.53,-1.06 -1975.11,-3.15 -1999.17,1.25z"/>
   <path class="fil1" d="M481.62 355.75c43.93,-6.59 1816.78,-1.72 1992.45,-1.98 49.12,-0.08 80.63,2.48 112.94,28.42 22.86,18.35 46.65,46.6 49.74,90.8 3.9,55.85 -57.67,159.94 -80.94,206.63 -31.51,63.25 -62.04,127.95 -93.58,192.49l-279.96 574.46c-92.92,191.43 -190.5,383.81 -280.38,573.96 -30.23,63.95 -62.74,127.62 -93.45,192.68 -30.59,64.8 -61.8,128.32 -94.11,191.78 -55.7,109.42 -79.99,230.54 -189.87,240.14 -115.45,10.09 -141.98,-26.47 -180.64,-103.08l-928.96 -1924.02c-36.02,-72.53 -79.97,-132.71 -25.77,-213.13 17.09,-25.36 49.31,-42.67 92.53,-49.15zm-17.81 -230.97l2073.26 0c13.98,6.28 41.34,7.37 57.66,11.44 115.2,28.77 215.35,115.45 253.86,233.8 55.72,171.26 -32.66,301.18 -94.91,426.78 -58.93,118.91 -123.24,262.36 -182.29,375.07 -32.48,62 -61.2,123.38 -91.6,187.01 -57.86,121.07 -125.7,252.43 -181.36,372.51 -28.69,61.89 -60.11,126.61 -91.52,187.21 -31.81,61.39 -61.86,124.11 -91.29,187.25l-181.3 372.54c-95.19,193.69 -153.58,396.98 -435.69,396.82 -184.39,-0.11 -290.6,-87.1 -349.36,-208.25 -117.79,-242.84 -249.34,-507.73 -361.55,-749.5 -29.36,-63.26 -61.47,-122.99 -90.97,-187.61 -28.6,-62.65 -59.83,-125.62 -89.77,-185.4 -30.18,-60.29 -60.67,-126.68 -90.63,-188.12 -30.86,-63.3 -61.7,-124.91 -90.74,-187.92 -44.01,-95.51 -244.35,-493.73 -269.48,-562.88 -67.62,-186.09 23.29,-376.87 200.5,-452.89 55.26,-23.7 88.5,-19.5 107.18,-27.86z"/>
   <path class="fil2" d="M2488.88 429.87c40.5,0.22 76.16,16.08 71.59,57.49 -2.38,21.62 -309.67,644.53 -346.5,719.54 -203.81,414.97 -406.16,841.33 -612.17,1254.29 -12.67,25.38 -30.28,68.99 -44.25,87.86 -16.13,21.78 -70.32,29.25 -104.25,15.57 -27.28,-10.99 -39.57,-52.39 -53.34,-82.26 -13.88,-30.07 -28.26,-58.05 -43.1,-88.89 -259.18,-538.87 -524.96,-1078.72 -780.98,-1617.29 -28.73,-60.43 -58.07,-120.18 -87.36,-180.25 -28.45,-58.36 -91.2,-147.93 1.19,-164.81 24.06,-4.4 1806.64,-2.31 1999.17,-1.25zm-2007.26 -74.12c-43.22,6.48 -75.44,23.79 -92.53,49.15 -54.2,80.42 -10.25,140.6 25.77,213.13l928.96 1924.02c38.66,76.61 65.19,113.17 180.64,103.08 109.88,-9.6 134.17,-130.72 189.87,-240.14 32.31,-63.46 63.52,-126.98 94.11,-191.78 30.71,-65.06 63.22,-128.73 93.45,-192.68 89.88,-190.15 187.46,-382.53 280.38,-573.96l279.96 -574.46c31.54,-64.54 62.07,-129.24 93.58,-192.49 23.27,-46.69 84.84,-150.78 80.94,-206.63 -3.09,-44.2 -26.88,-72.45 -49.74,-90.8 -32.31,-25.94 -63.82,-28.5 -112.94,-28.42 -175.67,0.26 -1948.52,-4.61 -1992.45,1.98z"/>
   <path class="fil1" d="M1544.99 1422.27c-2.21,-24.72 -8.51,-77.35 -7.21,-99.74 1.25,-21.73 33.59,-23.7 34.04,-64.73 -65.91,15.26 -64.76,18.01 -131.94,-0.11 1.73,33.78 15.64,44.92 35.09,55.92l-7.33 109.2c-15.81,-8.76 -98.78,-145.38 -108.8,-164.29 -5.83,-10.98 -10.87,-20.21 -15.75,-31.94l-13.14 -31.18c-145.06,6.87 -275.24,150.67 -257.25,311.96 5.27,47.29 22.25,76.7 48.44,95.03 27.01,18.91 69.51,30.1 110.02,33.38 81.45,6.59 486.28,7.85 559.99,-1.43 92.02,-11.58 140.5,-41.12 149.03,-134.27 14.46,-157.86 -120.94,-305 -261.4,-304.21 -6.4,46.59 -70.23,137.49 -98.02,177.39 -8.65,12.43 -21.51,42.37 -35.77,49.02z"/>
   <path class="fil1" d="M1454.73 777.86c-27.04,9.93 -28.85,-17.21 -32.69,-41.1 -3.42,-21.26 -7.2,-48.63 -12.8,-68.41 -71.85,30.07 -116.7,106.92 -118.49,189.88 -28.37,1.91 -48.46,11.23 -38.73,44.62 7.94,27.27 41.71,20.83 70.59,20.81l359.37 0c28.13,0 60.11,6.06 73.74,-14.08 8.29,-12.24 7.48,-27.46 1.17,-38.13 -6.51,-11.02 -18.54,-11.87 -34.82,-13.27 -3.13,-79.45 -45.92,-159.58 -117.1,-189.27 -0.57,0.94 -1.28,1.29 -1.5,2.95l-7.6 30.9c-1.94,11.71 -4.02,22.97 -6.08,34.43 -4.64,25.78 -3.09,49.94 -33.16,41.17 -13.12,-51.76 37.81,-127.83 5.34,-144.92 -15.1,-7.94 -36.68,-6.05 -56,-6.04 -45.39,0.03 -72.92,-3.46 -63.6,48.19 4.87,27.01 21.21,80.59 12.36,102.27z"/>
   <path class="fil2" d="M1604.04 1854.13c4.81,-12.66 4.76,-5.57 0.33,-12.75 -13.98,-9.01 -119.47,-3.55 -146.08,-3.55 -110.78,0 -99.55,-8.26 -75.39,41.69l73.59 153.91c7.13,14.96 13.72,37.76 27.47,47.52 16.75,-3.67 15.37,-11.62 22.51,-26.79l97.57 -200.03z"/>
  </g>
 </g>
</svg>
